<?xml version="1.0" encoding="utf-8"?>
<!-- Generator: Adobe Illustrator 28.6.0, SVG Export Plug-In . SVG Version: 6.00 Build 0)  -->
<!-- NoaCG show corpus. A SURVEY BOARD, the Family Feud shape: a question card, eight answer slots
     in two columns, three strikes and a round total. Drawn the way a student draws it:

     The base look     -> the backplate, the question, eight slots with the answer and its points
                          drawn AS THEY LOOK REVEALED (NoaCG hides them until the reveal).
     "Revealed 1..8"   -> hidden: the lit plate behind a revealed slot.
     "Strike 1..3"     -> hidden: one red X each, top right, lit as the strikes mount.
     "Total"           -> the round total, written by NoaCG from what is revealed.

     Full-frame 1920x1080. Words last. -->
<svg version="1.1" id="Layer_1" xmlns="http://www.w3.org/2000/svg" xmlns:xlink="http://www.w3.org/1999/xlink" x="0px" y="0px"
	 viewBox="0 0 1920 1080" width="1920" height="1080" style="enable-background:new 0 0 1920 1080;"
	 xml:space="preserve">
<style type="text/css">
	.st0{fill:#0D1017;}
	.st1{fill:#161B24;}
	.st2{fill:#F6A623;}
	.st3{fill:#FFFFFF;}
	.st4{font-family:'Archivo-Bold';}
	.st5{font-size:48px;}
	.st6{fill:#1E2A3A;}
	.st7{font-family:'Inter-Medium';}
	.st8{font-size:40px;}
	.st9{fill:#2C3A50;}
	.st10{fill:#D9382B;}
	.st11{fill:none;stroke:#FFFFFF;stroke-width:14;stroke-linecap:round;}
	.st12{font-size:64px;}
	.st13{fill:#1B2431;}
</style>
<g id="Backplate">
	<rect y="0" class="st0" width="1920" height="1080"/>
</g>
<g id="Question_x20_card" data-name="Question card">
	<rect x="200" y="80" class="st1" width="1300" height="130"/>
	<rect x="200" y="80" class="st2" width="1300" height="8"/>
</g>
<g id="Slots">
	<rect x="200" y="260" class="st6" width="740" height="100"/>
	<rect x="200" y="380" class="st6" width="740" height="100"/>
	<rect x="200" y="500" class="st6" width="740" height="100"/>
	<rect x="200" y="620" class="st6" width="740" height="100"/>
	<rect x="980" y="260" class="st6" width="740" height="100"/>
	<rect x="980" y="380" class="st6" width="740" height="100"/>
	<rect x="980" y="500" class="st6" width="740" height="100"/>
	<rect x="980" y="620" class="st6" width="740" height="100"/>
</g>
<g id="Total_x20_plate" data-name="Total plate">
	<rect x="1560" y="80" class="st13" width="160" height="130"/>
	<rect x="1560" y="80" class="st2" width="160" height="8"/>
</g>
<g id="Revealed_x20_1" data-name="Revealed 1" display="none">
	<rect x="200" y="260" class="st9" width="740" height="100"/>
	<rect x="200" y="260" class="st2" width="10" height="100"/>
</g>
<g id="Revealed_x20_2" data-name="Revealed 2" display="none">
	<rect x="200" y="380" class="st9" width="740" height="100"/>
	<rect x="200" y="380" class="st2" width="10" height="100"/>
</g>
<g id="Revealed_x20_3" data-name="Revealed 3" display="none">
	<rect x="200" y="500" class="st9" width="740" height="100"/>
	<rect x="200" y="500" class="st2" width="10" height="100"/>
</g>
<g id="Revealed_x20_4" data-name="Revealed 4" display="none">
	<rect x="200" y="620" class="st9" width="740" height="100"/>
	<rect x="200" y="620" class="st2" width="10" height="100"/>
</g>
<g id="Revealed_x20_5" data-name="Revealed 5" display="none">
	<rect x="980" y="260" class="st9" width="740" height="100"/>
	<rect x="980" y="260" class="st2" width="10" height="100"/>
</g>
<g id="Revealed_x20_6" data-name="Revealed 6" display="none">
	<rect x="980" y="380" class="st9" width="740" height="100"/>
	<rect x="980" y="380" class="st2" width="10" height="100"/>
</g>
<g id="Revealed_x20_7" data-name="Revealed 7" display="none">
	<rect x="980" y="500" class="st9" width="740" height="100"/>
	<rect x="980" y="500" class="st2" width="10" height="100"/>
</g>
<g id="Revealed_x20_8" data-name="Revealed 8" display="none">
	<rect x="980" y="620" class="st9" width="740" height="100"/>
	<rect x="980" y="620" class="st2" width="10" height="100"/>
</g>
<g id="Strike_x20_1" data-name="Strike 1" display="none">
	<rect x="1180" y="800" class="st10" width="140" height="140" rx="12"/>
	<line class="st11" x1="1215" y1="835" x2="1285" y2="905"/>
	<line class="st11" x1="1285" y1="835" x2="1215" y2="905"/>
</g>
<g id="Strike_x20_2" data-name="Strike 2" display="none">
	<rect x="1360" y="800" class="st10" width="140" height="140" rx="12"/>
	<line class="st11" x1="1395" y1="835" x2="1465" y2="905"/>
	<line class="st11" x1="1465" y1="835" x2="1395" y2="905"/>
</g>
<g id="Strike_x20_3" data-name="Strike 3" display="none">
	<rect x="1540" y="800" class="st10" width="140" height="140" rx="12"/>
	<line class="st11" x1="1575" y1="835" x2="1645" y2="905"/>
	<line class="st11" x1="1645" y1="835" x2="1575" y2="905"/>
</g>
<g id="Words">
	<text id="Question" data-name="Question" transform="matrix(1 0 0 1 260 162)" class="st3 st4 st5">Name something you would find in a kitchen</text>
	<text id="Total" data-name="Total" transform="matrix(1 0 0 1 1640 168)" class="st2 st4 st12" text-anchor="middle">0</text>
	<text id="Answer_x20_1" data-name="Answer 1" transform="matrix(1 0 0 1 240 324)" class="st3 st7 st8">Toaster</text>
	<text id="Points_x20_1" data-name="Points 1" transform="matrix(1 0 0 1 900 324)" class="st2 st4 st8" text-anchor="end">32</text>
	<text id="Answer_x20_2" data-name="Answer 2" transform="matrix(1 0 0 1 240 444)" class="st3 st7 st8">Fridge</text>
	<text id="Points_x20_2" data-name="Points 2" transform="matrix(1 0 0 1 900 444)" class="st2 st4 st8" text-anchor="end">24</text>
	<text id="Answer_x20_3" data-name="Answer 3" transform="matrix(1 0 0 1 240 564)" class="st3 st7 st8">Kettle</text>
	<text id="Points_x20_3" data-name="Points 3" transform="matrix(1 0 0 1 900 564)" class="st2 st4 st8" text-anchor="end">15</text>
	<text id="Answer_x20_4" data-name="Answer 4" transform="matrix(1 0 0 1 240 684)" class="st3 st7 st8">Knives</text>
	<text id="Points_x20_4" data-name="Points 4" transform="matrix(1 0 0 1 900 684)" class="st2 st4 st8" text-anchor="end">11</text>
	<text id="Answer_x20_5" data-name="Answer 5" transform="matrix(1 0 0 1 1020 324)" class="st3 st7 st8">Sink</text>
	<text id="Points_x20_5" data-name="Points 5" transform="matrix(1 0 0 1 1680 324)" class="st2 st4 st8" text-anchor="end">8</text>
	<text id="Answer_x20_6" data-name="Answer 6" transform="matrix(1 0 0 1 1020 444)" class="st3 st7 st8">Oven</text>
	<text id="Points_x20_6" data-name="Points 6" transform="matrix(1 0 0 1 1680 444)" class="st2 st4 st8" text-anchor="end">5</text>
	<text id="Answer_x20_7" data-name="Answer 7" transform="matrix(1 0 0 1 1020 564)" class="st3 st7 st8">Spices</text>
	<text id="Points_x20_7" data-name="Points 7" transform="matrix(1 0 0 1 1680 564)" class="st2 st4 st8" text-anchor="end">3</text>
	<text id="Answer_x20_8" data-name="Answer 8" transform="matrix(1 0 0 1 1020 684)" class="st3 st7 st8">A cat</text>
	<text id="Points_x20_8" data-name="Points 8" transform="matrix(1 0 0 1 1680 684)" class="st2 st4 st8" text-anchor="end">2</text>
</g>
</svg>
